<svg xmlns="http://www.w3.org/2000/svg" viewBox="0 0 35 35"><path d="M1 1h7v7h-7zM10 1h5v1h2v-1h2v2h1v1h-2v1h-1v1h2v-1h1v3h-1v-1h-1v1h-1v-1h-1v-2h-1v-1h1v-1h-1v1h-2v-2h-3zM20 1h1v1h-1zM23 1h3v2h-1v-1h-2zM27 1h7v7h-7zM2 2v5h5v-5zM21 2h2v1h2v1h-1v2h-1v-1h-2v-1h1v-1h-1zM28 2v5h5v-5zM3 3h3v3h-3zM9 3h3v2h-2v3h1v1h1v4h1v2h-1v-1h-1v-1h-3v-1h1v-1h1v1h1v-1h-1v-2h-1zM29 3h3v3h-3zM12 6h3v1h-1v1h-1v-1h-1zM21 6h2v1h-1v1h-1zM25 6h1v3h-1zM11 7h1v1h-1zM15 7h1v1h1v2h-4v-1h2zM23 7h1v1h-1zM12 8h1v1h-1zM22 8h1v1h-1zM1 9h1v2h1v-2h5v1h-4v1h1v1h-4zM18 9h2v1h-2zM21 9h1v1h-1zM27 9h5v1h1v2h1v3h-1v1h-1v-1h-1v-1h1v-1h-1v1h-2v-3h1v1h1v-1h-1v-1h-1v1h-5v-1h3zM8 10h1v1h-1zM17 10h1v1h-1zM20 10h1v1h-1zM22 10h1v1h-1zM7 11h1v1h-1zM16 11h1v2h-2v-1h1zM19 11h1v1h-1zM23 11h1v1h-1zM6 12h1v1h1v1h-3v-1h1zM13 12h1v1h-1zM20 12h1v2h-2v-1h1zM22 12h1v1h1v3h-1v-2h-1zM25 12h3v1h-1v1h1v1h-2v-2h-1zM2 13h1v1h-1zM1 14h1v1h1v1h-2zM3 14h1v1h-1zM8 14h3v2h-2v1h-1v-1h-1v-1h1zM15 14h4v1h-3v1h-1v1h-1v-2h1zM21 14h1v1h-1zM4 15h1v1h-1zM19 15h2v1h2v1h-1v1h-1v1h-1v-1h-1v2h1v1h-2v-1h-3v1h-4v-1h1v-1h1v-1h-1v-1h-1v-1h2v1h1v2h1v-2h1v2h1v-1h1v-1h1zM25 15h1v1h-1zM28 15h1v2h1v1h-1v1h-2v1h1v1h-2v-1h-1v-1h-2v2h1v-1h1v2h-2v1h1v1h1v1h-3v-1h-1v-1h1v-1h-1v-1h1v-1h-1v-1h1v-1h6zM5 16h1v1h2v1h-1v1h1v1h-1v1h1v1h-2v-2h-1zM17 16h1v1h-1zM26 16h1v1h-1zM30 16h2v1h-2zM3 17h1v2h-1zM9 17h2v1h-2zM33 17h1v2h-1zM1 18h1v1h-1zM8 18h1v1h-1zM11 18h1v1h-1zM30 18h2v1h1v1h-1v1h-1v1h1v1h1v1h-1v1h-1v1h-1v3h1v1h-1v1h-1v1h1v1h1v1h-3v-1h-1v1h-3v-2h1v-1h3v-1h-3v-2h-1v-1h1v-2h1v-1h1v1h2v-2h1v-1h-1v-3h1v1h1v-1h-1zM2 19h1v1h-1zM10 19h1v1h-1zM3 20h2v1h-1v1h-1v1h-1v3h-1v-4h1v-1h1zM8 20h2v2h-1v-1h-1zM33 20h1v3h-1v-1h-1v-1h1zM15 21h3v1h-1v1h1v1h-1v2h-1v-1h-1v-1h1v-1h-1zM8 22h1v2h1v3h-1v-2h-1v-1h-2v1h-1v1h-2v-3h1v1h1v-1h3zM11 22h3v1h-1v1h1v1h1v1h-2v-1h-1v-1h-1zM18 22h2v2h-1v-1h-1zM26 22h2v2h-1v-1h-1zM14 23h1v1h-1zM7 25h1v1h-1zM18 25h2v1h-2zM21 25h1v1h-1zM11 26h1v1h1v1h-3v-1h1zM15 26h1v1h-1zM17 26h1v3h-1v-1h-1v-1h1zM20 26h1v1h-1zM22 26h2v1h-2zM26 26v3h3v-3zM31 26h1v1h1v1h1v3h-3v-1h2v-1h-2zM1 27h7v7h-7zM19 27h1v1h-1zM27 27h1v1h-1zM2 28v5h5v-5zM9 28h1v1h1v1h1v-1h1v-1h3v1h-1v2h1v1h-2v-1h-2v1h2v2h-2v-1h-1v-1h-2zM20 28h3v3h-2v-1h1v-1h-1v1h-2v-1h1zM3 29h3v3h-3zM16 30h2v1h-2zM19 31h2v1h2v1h-2v1h-3v-1h2v-1h-1zM23 31h1v1h-1zM30 31h1v1h-1zM17 32h1v1h-1zM31 32h1v1h-1zM9 33h1v1h-1zM32 33h1v1h-1z"/></svg>